<?xml version="1.0" standalone="no"?>
<!DOCTYPE svg PUBLIC "-//W3C//DTD SVG 20010904//EN"
 "http://www.w3.org/TR/2001/REC-SVG-20010904/DTD/svg10.dtd">
<svg version="1.0" xmlns="http://www.w3.org/2000/svg"
 width="700.000000pt" height="700.000000pt" viewBox="0 0 700.000000 700.000000"
 preserveAspectRatio="xMidYMid meet">
<metadata>
Created by potrace 1.11, written by Peter Selinger 2001-2013
</metadata>
<g transform="translate(0.000000,700.000000) scale(0.100000,-0.100000)"
fill="#000000" stroke="none">
<path d="M3265 6803 c-126 -74 -236 -136 -244 -140 -7 -3 -89 -50 -181 -103
-92 -53 -174 -100 -181 -103 -8 -4 -70 -39 -139 -79 l-125 -73 -1 -207 c0
-115 3 -208 7 -208 4 0 63 32 131 71 67 39 143 82 167 96 25 13 212 121 417
239 205 118 378 214 383 214 13 0 -2 8 461 -258 530 -304 632 -362 639 -362 4
0 7 93 7 207 l-1 207 -120 69 c-151 87 -789 453 -832 478 -18 10 -61 33 -95
52 l-63 34 -230 -134z"/>
<path d="M1340 5690 c-151 -88 -398 -231 -547 -318 l-273 -157 0 -636 0 -636
172 -99 c95 -55 177 -100 183 -102 7 -2 10 189 10 615 0 340 1 625 3 634 3 12
268 174 417 255 11 6 115 66 230 134 116 67 228 133 250 145 22 12 67 38 100
58 33 21 68 40 78 43 25 9 21 18 -20 40 -21 12 -83 47 -138 79 -55 32 -118 69
-140 82 -22 12 -42 23 -45 23 -3 0 -129 -72 -280 -160z"/>
<path d="M5345 5826 c-46 -27 -85 -50 -219 -126 -53 -30 -96 -57 -96 -60 0 -3
44 -30 97 -60 53 -30 133 -76 177 -102 45 -26 88 -51 96 -55 8 -4 73 -41 146
-84 72 -42 151 -88 175 -102 143 -80 385 -222 394 -229 6 -6 11 -229 12 -621
1 -743 -1 -664 21 -645 9 8 90 57 180 108 l162 92 0 637 0 636 -539 313 c-296
171 -545 314 -552 317 -8 3 -32 -6 -54 -19z"/>
<path d="M1161 4787 c19 -16 741 -379 2073 -1043 l220 -109 2 -785 c2 -651 7
-1286 17 -1984 2 -109 13 -141 35 -99 16 28 30 1107 31 2294 l1 586 78 35
c356 164 2218 1096 2208 1106 -2 1 -19 -5 -39 -13 -54 -23 -581 -261 -662
-300 -38 -18 -126 -59 -195 -90 -69 -32 -185 -86 -259 -121 -73 -35 -134 -64
-136 -64 -1 0 -82 -38 -179 -85 -97 -47 -178 -85 -180 -85 -2 0 -91 -42 -197
-94 -290 -140 -470 -226 -475 -226 -2 0 -65 29 -140 65 -75 36 -138 65 -139
65 -2 0 -72 33 -156 74 -85 40 -179 85 -209 99 -30 14 -98 45 -150 70 -174 82
-244 114 -445 207 -110 51 -234 108 -275 128 -121 56 -195 90 -370 169 -91 41
-190 86 -220 100 -163 75 -256 114 -239 100z"/>
<path d="M835 3222 c-22 -14 -70 -43 -107 -64 -37 -21 -82 -46 -100 -56 -18
-11 -50 -29 -71 -42 l-37 -22 2 -636 3 -636 135 -79 c74 -43 153 -89 175 -102
87 -49 121 -68 425 -245 173 -101 324 -189 336 -196 18 -13 35 -5 181 79 233
134 217 115 136 162 -37 21 -84 48 -103 58 -19 11 -66 38 -105 62 -38 23 -236
138 -440 255 -203 117 -372 215 -374 217 -3 2 -5 287 -5 632 -1 346 -3 632 -6
634 -3 3 -23 -7 -45 -21z"/>
<path d="M6125 2618 c0 -346 -2 -633 -5 -637 -3 -4 -59 -38 -125 -77 -66 -38
-127 -73 -136 -79 -10 -5 -30 -17 -46 -26 -15 -8 -116 -66 -223 -128 -107 -63
-269 -156 -360 -209 -91 -52 -173 -100 -183 -107 -20 -14 -37 -3 261 -176 l82
-48 278 161 c152 88 291 168 307 177 17 9 41 24 55 33 14 9 48 29 76 45 28 15
126 71 217 123 l167 95 -3 639 -2 639 -35 20 c-19 10 -91 52 -160 92 -69 40
-134 77 -145 83 -20 10 -20 7 -20 -620z"/>
<path d="M4575 1082 c-16 -9 -265 -151 -552 -316 l-522 -298 -208 118 c-114
65 -217 124 -228 130 -11 6 -163 92 -337 192 -174 100 -321 182 -326 182 -4 0
-8 -93 -8 -207 l1 -206 380 -219 c209 -120 391 -224 405 -231 14 -8 88 -50
166 -95 77 -45 146 -82 153 -82 7 0 123 64 259 142 136 77 265 151 287 164 22
12 157 89 300 172 l260 149 1 211 c0 117 0 212 0 211 -1 0 -14 -8 -31 -17z"/>
</g>
</svg>
