<?xml version="1.0" encoding="utf-8"?>
<!-- Generator: Adobe Illustrator 16.0.3, SVG Export Plug-In . SVG Version: 6.00 Build 0)  -->
<!DOCTYPE svg PUBLIC "-//W3C//DTD SVG 1.1 Tiny//EN" "http://www.w3.org/Graphics/SVG/1.1/DTD/svg11-tiny.dtd">
<svg version="1.1" baseProfile="tiny" id="Layer_1" xmlns="http://www.w3.org/2000/svg" xmlns:xlink="http://www.w3.org/1999/xlink"
	 x="0px" y="0px" width="1196.4px" height="291.3px" viewBox="0 0 1196.4 291.3" xml:space="preserve">
<polygon fill="#00AEEF" stroke="#1C75BC" stroke-miterlimit="10" points="172.5,26.7 126,0 79.5,26.7 79.5,43.9 126,17.2 
	172.5,43.9 "/>
<polygon fill="#99DFF9" stroke="#1C75BC" stroke-miterlimit="10" points="79.5,264.6 126,291.3 172.5,264.6 172.5,247.4 126,274.1 
	79.5,247.4 "/>
<polygon fill="#33BEF2" stroke="#1C75BC" stroke-miterlimit="10" points="252.6,126.3 252.5,72.8 206.2,46 191.3,54.6 237.6,81.4 
	237.7,134.9 "/>
<polygon fill="#66CEF5" stroke="#1C75BC" stroke-miterlimit="10" points="0.2,165 0.3,218.4 46.5,245.2 61.4,236.6 15.2,209.8 
	15.1,156.4 "/>
<polygon fill="#33BEF2" stroke="#1C75BC" stroke-miterlimit="10" points="46.5,46 0.3,72.8 0.2,126.3 15.1,134.9 15.2,81.4 
	61.4,54.6 "/>
<polygon fill="#66CEF5" stroke="#1C75BC" stroke-miterlimit="10" points="206.2,245.2 252.5,218.4 252.6,165 237.7,156.4 
	237.6,209.8 191.3,236.6 "/>
<g>
	<path fill="#BE1E2D" d="M225,90.8c-4,2.2-8,4.4-12,6.6c-4,2.1-8.1,4.3-12.1,6.4c-4.1,2.1-8.1,4.3-12.2,6.3l-12.2,6.2l-12.3,6.2
		c-4.1,2.1-8.2,4-12.3,6.1c-4.1,2-8.2,4.1-12.3,6c-4.1,2-8.2,4-12.4,5.9l1.5-2.3l-0.1,7.6l-0.2,7.6l-0.5,15.3l-0.5,15.3
		c-0.2,5.1-0.2,10.2-0.3,15.3c-0.1,2.5,0,5.1-0.1,7.6l0,7.6c0,5.1,0,10.2,0.1,15.3l0.1,7.6l0.2,7.6l0.4,15.3h-3.3
		c-0.3-10.2-0.6-20.4-0.8-30.6l-0.2-15.3l-0.2-15.3l-0.3-30.6l0-15.3l0-7.6l0.1-7.6l1.8,2.8l-12.3-6.1c-4.1-2-8.2-4.1-12.3-6.1
		l-12.3-6.2l-12.2-6.2l-12.2-6.3l-12.2-6.4c-4.1-2.1-8.1-4.3-12.1-6.5c-4-2.2-8.1-4.3-12.1-6.5l0.3-0.5c4.2,1.8,8.4,3.6,12.6,5.4
		c4.2,1.8,8.4,3.6,12.6,5.5l12.5,5.6l12.5,5.6l12.5,5.7l12.5,5.7c4.1,1.9,8.3,3.8,12.4,5.8l12.3,5.9c1.1,0.5,1.7,1.6,1.7,2.8v0.1
		l0.1,7.6l0,7.6l0,15.3l-0.3,30.6l-0.2,15.3l-0.2,15.3c-0.2,10.2-0.5,20.4-0.8,30.6l0,0.1c0,0.9-0.8,1.6-1.7,1.6
		c-0.9,0-1.6-0.8-1.6-1.7l0.4-15.3l0.2-7.6l0.1-7.6c0.1-5.1,0.1-10.2,0.1-15.3l0-7.6c0-2.5,0-5.1-0.1-7.6
		c-0.1-5.1-0.2-10.2-0.3-15.3l-0.5-15.3l-0.5-15.3l-0.2-7.6l-0.1-7.6c0-1,0.5-1.9,1.4-2.3l0.1,0c4.1-2.1,8.2-4,12.3-6
		c4.1-2,8.3-3.9,12.4-5.9c4.1-1.9,8.3-3.9,12.4-5.8l12.5-5.8l12.5-5.7c4.2-1.9,8.4-3.7,12.5-5.6c4.2-1.9,8.4-3.7,12.6-5.5
		c4.2-1.8,8.4-3.6,12.7-5.3L225,90.8z"/>
</g>
<g>
	<path fill="#F1F2F2" stroke="#414042" stroke-miterlimit="10" d="M391.6,77.8c3.8,0,6,2.7,6,5.4c0,2.8-2.6,5.4-5.7,5.4h-36.5v115.9
		c0,2.9-2.8,5.5-5.8,5.5c-3.3,0-5.8-2.6-5.8-5.4V88.7H307c-3.1,0-5.7-2.6-5.7-5.4c0-2.8,2.6-5.4,5.7-5.4L391.6,77.8z"/>
	<path fill="#F1F2F2" stroke="#414042" stroke-miterlimit="10" d="M433.6,112c3.7,0,5.8,2.3,5.8,5.1c0,2.9-2.2,5-5.4,5h-6.2
		c-17.6,0-25.9,10.4-25.9,27v55.6c0,3.1-2.4,5.2-5.7,5.2c-3.5,0-5.6-2.2-5.6-5.2v-87.9c0-3.2,1.6-4.9,4.6-4.9c3,0,4.7,1.7,4.8,4.8
		l0.2,7.8c5.2-8.4,14.1-12.6,27.5-12.6L433.6,112z"/>
	<path fill="#F1F2F2" stroke="#414042" stroke-miterlimit="10" d="M457.9,84.1c0-3,2-5.4,5.5-5.4c3.2,0,5.7,2.3,5.7,5.4v3.7
		c0,3-2.3,5.2-5.7,5.2c-3.5,0-5.5-2.3-5.5-5.2V84.1z M457.9,119.3c0-3.1,2-5.5,5.5-5.5c3.2,0,5.7,2.3,5.7,5.5v85.4
		c0,3.1-2.3,5.2-5.7,5.2c-3.4,0-5.5-2.2-5.5-5.2V119.3z"/>
	<path fill="#F1F2F2" stroke="#414042" stroke-miterlimit="10" d="M554.5,113.9c4.9,0,8.3,3.5,8.3,8v87.4c0,28.8-7.8,43.4-35.2,43.4
		h-28.8c-3.5,0-5.6-2.3-5.6-5.1c0-2.8,2.1-5.1,5.3-5.1h28.9c18.3,0,23.6-9.3,23.9-32.5H521c-16,0-30.1-11.7-30.1-31.5v-28.8
		c0-13.9,7.8-35.8,30.4-35.8L554.5,113.9z M551.5,124.7h-30.1c-10.6,0-19.1,10.3-19.1,25.5v28.3c0,12.7,9,20.9,18.8,20.9h30.5
		L551.5,124.7z"/>
	<path fill="#F1F2F2" stroke="#414042" stroke-miterlimit="10" d="M648.4,113.9c4.9,0,8.3,3.5,8.3,8v87.4c0,28.8-7.8,43.4-35.2,43.4
		h-28.8c-3.5,0-5.6-2.3-5.6-5.1c0-2.8,2.1-5.1,5.3-5.1h28.9c18.3,0,23.6-9.3,23.9-32.5h-30.3c-16,0-30.1-11.7-30.1-31.5v-28.8
		c0-13.9,7.8-35.8,30.4-35.8L648.4,113.9z M645.3,124.7h-30.1c-10.6,0-19.1,10.3-19.1,25.5v28.3c0,12.7,9,20.9,18.8,20.9h30.5
		L645.3,124.7z"/>
	<path fill="#F1F2F2" stroke="#414042" stroke-miterlimit="10" d="M678.6,150.5c0-23.2,15.8-36.7,35.8-36.7
		c23.4,0,36.8,13,36.8,36.7v8.9c0,4.4-3.5,7.8-8.3,7.8H690c0.2,23,5.4,32.5,23.9,32.5h28.6c3.5,0,5.6,2.3,5.6,5.2c0,2.8-2.1,5-5.3,5
		h-29.1c-27.8,0-35.2-14.8-35.2-44.7L678.6,150.5z M739.8,149.6c-0.2-16.7-8.7-25.5-25.4-25.5c-15,0-24.2,10.1-24.5,25.5v8.3h49.9
		V149.6z"/>
	<path fill="#F1F2F2" stroke="#414042" stroke-miterlimit="10" d="M814.6,112c3.7,0,5.8,2.3,5.8,5.1c0,2.9-2.2,5-5.4,5h-6.2
		c-17.6,0-25.9,10.4-25.9,27v55.6c0,3.1-2.4,5.2-5.7,5.2c-3.5,0-5.6-2.2-5.6-5.2v-87.9c0-3.2,1.6-4.9,4.6-4.9c3,0,4.7,1.7,4.8,4.8
		l0.2,7.8c5.2-8.4,14.1-12.6,27.5-12.6L814.6,112z"/>
	<path fill="#ED1C24" stroke="#B41C24" stroke-miterlimit="10" d="M831.7,84c0-0.3-0.1-0.5-0.1-0.8c0-3.5,3.2-5.4,6-5.4
		c3.3,0,5.6,2.4,6,5l14.7,112.5c0.3,2.4,1.1,3.5,2.4,3.7c1.3,0.2,2.3-1,3.2-3.1l25.2-60.2c0.8-2,3.1-4.2,6.6-4.2
		c3.2,0,5.4,1.6,6.4,3.9l25.2,60.5c0.9,2.1,1.9,3.2,3.2,3.1c1.3-0.1,2.1-1.2,2.4-3.7l15-112.9c0.3-2.5,2.7-4.6,5.9-4.6
		c3.4,0,6.3,2.6,5.8,6.3l-15.5,114.2c-1,6.9-6.4,11.6-13.7,11.6c-6.2,0-11.2-3.8-13.2-8.4l-21.5-52l-21.7,52.1
		c-1.9,4.6-7,8.3-13.1,8.3c-7.4,0-12.8-5-13.6-11.7L831.7,84z"/>
	<path fill="#ED1C24" stroke="#B41C24" stroke-miterlimit="10" d="M981.5,124.1c-3.7,0-5.8-2.2-5.8-5.2c0-2.7,2-5.1,5.4-5.1h33.9
		c15.2,0,26.2,12,26.2,27.6V202c0,4.6-3.5,8-8.3,8h-34.9c-15.4,0-27.8-12.2-27.8-27.2c0-14.9,12.3-27.5,27.8-27.5h31.9v-13.2
		c0-10.2-6.1-18-15.5-18L981.5,124.1z M1030,199.4v-33.6h-31.9c-8.9,0-16.6,7.8-16.6,17c0,9.1,7.7,16.6,16.6,16.6H1030z"/>
	<path fill="#ED1C24" stroke="#B41C24" stroke-miterlimit="10" d="M1107.8,112c3.7,0,5.8,2.3,5.8,5.1c0,2.9-2.2,5-5.4,5h-6.2
		c-17.6,0-25.9,10.4-25.9,27v55.6c0,3.1-2.4,5.2-5.7,5.2c-3.5,0-5.6-2.2-5.6-5.2v-87.9c0-3.2,1.6-4.9,4.6-4.9c3,0,4.7,1.7,4.8,4.8
		l0.2,7.8c5.2-8.4,14.1-12.6,27.5-12.6L1107.8,112z"/>
	<path fill="#ED1C24" stroke="#B41C24" stroke-miterlimit="10" d="M1187,113.9c3.5,0,5.7,2.3,5.7,5.1c0,3.1-2.3,5.2-5.4,5.2h-29
		c-12.1,0-21.4,4.3-21.4,15.7c0,10.5,6.9,13.6,22.8,15.5l6.8,1c18.3,2.5,29.7,10,29.7,26c0,21.2-14.8,27.5-35.9,27.5h-26.4
		c-3,0-5.4-2.1-5.4-5c0-3,2.3-5.2,5.4-5.2h26.4c15,0,24.6-4.5,24.6-17.1c0-8.6-7.1-14.4-20.1-15.9l-8.1-0.9
		c-18.8-2.1-31.1-8.5-31.1-25.6c0-18.9,15.2-26.3,32.6-26.3H1187z"/>
</g>
</svg>
