<?xml version="1.0" encoding="utf-8"?>
<!-- Generator: Adobe Illustrator 16.0.3, SVG Export Plug-In . SVG Version: 6.00 Build 0)  -->
<!DOCTYPE svg PUBLIC "-//W3C//DTD SVG 1.1//EN" "http://www.w3.org/Graphics/SVG/1.1/DTD/svg11.dtd">
<svg version="1.1" xmlns="http://www.w3.org/2000/svg" xmlns:xlink="http://www.w3.org/1999/xlink" x="0px" y="0px" width="1200px"
	 height="300px" viewBox="0 0 1200 300" style="enable-background:new 0 0 1200 300;" xml:space="preserve">
<style type="text/css">
<![CDATA[
	.st0{fill:#BE1E2D;}
	.st1{fill:#66CEF5;stroke:#1C75BC;stroke-miterlimit:10;}
	.st2{fill:#58595B;stroke:#414042;stroke-miterlimit:10;}
	.st3{fill:#ED1C24;stroke:#B41C24;stroke-miterlimit:10;}
	.st4{fill:#FFC01F;}
	.st5{fill:#99DFF9;stroke:#1C75BC;stroke-miterlimit:10;}
	.st6{fill:#33BEF2;stroke:#1C75BC;stroke-miterlimit:10;}
	.st7{fill:#00AEEF;stroke:#1C75BC;stroke-miterlimit:10;}
]]>
</style>
<g id="Text">
	<g>
		<path class="st2" d="M392.6,82c3.8,0,6.1,2.7,6.1,5.4c0,2.8-2.6,5.4-5.7,5.4h-36.6V209c0,2.9-2.8,5.5-5.8,5.5
			c-3.4,0-5.9-2.6-5.9-5.4V92.9h-37c-3.1,0-5.7-2.7-5.7-5.4c0-2.8,2.7-5.4,5.7-5.4L392.6,82z"/>
		<path class="st2" d="M434.8,116.3c3.7,0,5.8,2.3,5.8,5.1c0,2.9-2.2,5.1-5.4,5.1H429c-17.6,0-26,10.4-26,27.1v55.7
			c0,3.1-2.4,5.2-5.7,5.2c-3.5,0-5.6-2.2-5.6-5.2v-88.1c0-3.2,1.6-4.9,4.7-4.9c3,0,4.7,1.7,4.8,4.8l0.2,7.8
			c5.2-8.4,14.1-12.7,27.6-12.7L434.8,116.3z"/>
		<path class="st2" d="M459.1,88.3c0-3,2-5.4,5.5-5.4c3.3,0,5.7,2.3,5.7,5.4V92c0,3-2.3,5.2-5.7,5.2c-3.5,0-5.5-2.3-5.5-5.2V88.3z
			 M459.1,123.6c0-3.1,2-5.5,5.5-5.5c3.3,0,5.7,2.3,5.7,5.5v85.6c0,3.1-2.4,5.2-5.7,5.2c-3.4,0-5.5-2.2-5.5-5.2V123.6z"/>
		<path class="st2" d="M556.1,118.1c4.9,0,8.3,3.5,8.3,8v87.6c0,28.9-7.9,43.5-35.3,43.5h-28.9c-3.5,0-5.6-2.3-5.6-5.1
			c0-2.8,2.1-5.1,5.3-5.1h29c18.3,0,23.7-9.3,24-32.6h-30.4c-16,0-30.2-11.7-30.2-31.6v-28.8c0-13.9,7.8-35.9,30.5-35.9L556.1,118.1
			z M553,129h-30.2c-10.7,0-19.2,10.3-19.2,25.6v28.4c0,12.7,9,20.9,18.8,20.9H553L553,129z"/>
		<path class="st2" d="M650.2,118.1c4.9,0,8.3,3.5,8.3,8v87.6c0,28.9-7.9,43.5-35.3,43.5h-28.9c-3.5,0-5.6-2.3-5.6-5.1
			c0-2.8,2.1-5.1,5.3-5.1h29c18.3,0,23.7-9.3,24-32.6h-30.4c-16,0-30.2-11.7-30.2-31.6v-28.8c0-13.9,7.8-35.9,30.5-35.9L650.2,118.1
			z M647.1,129H617c-10.7,0-19.2,10.3-19.2,25.6v28.4c0,12.7,9,20.9,18.8,20.9h30.6L647.1,129z"/>
		<path class="st2" d="M680.5,154.9c0-23.3,15.9-36.8,35.9-36.8c23.5,0,36.9,13,36.9,36.8v8.9c0,4.5-3.6,7.8-8.3,7.8h-53
			c0.2,23,5.4,32.6,23.9,32.6h28.7c3.5,0,5.6,2.3,5.6,5.2c0,2.9-2.1,5.1-5.3,5.1h-29.2c-27.9,0-35.3-14.9-35.3-44.8L680.5,154.9z
			 M741.9,154c-0.2-16.7-8.7-25.6-25.4-25.6c-15.1,0-24.3,10.1-24.6,25.5v8.3h50V154z"/>
		<path class="st2" d="M817,116.3c3.7,0,5.8,2.3,5.8,5.1c0,2.9-2.2,5.1-5.4,5.1h-6.2c-17.6,0-26,10.4-26,27.1v55.7
			c0,3.1-2.4,5.2-5.7,5.2c-3.5,0-5.6-2.2-5.6-5.2v-88.1c0-3.2,1.6-4.9,4.7-4.9c3,0,4.7,1.7,4.8,4.8l0.2,7.8
			c5.2-8.4,14.1-12.7,27.6-12.7L817,116.3z"/>
		<path class="st3" d="M834.2,88.2c0-0.3-0.1-0.5-0.1-0.8c0-3.5,3.2-5.4,6-5.4c3.3,0,5.7,2.4,6,5l14.8,112.8
			c0.3,2.5,1.1,3.5,2.4,3.7c1.3,0.2,2.3-1,3.2-3.1l25.3-60.3c0.8-2,3.1-4.2,6.6-4.2c3.2,0,5.5,1.6,6.4,3.9l25.3,60.6
			c0.9,2.1,1.9,3.2,3.2,3.1c1.3-0.1,2.1-1.2,2.4-3.7l15.1-113.2c0.3-2.5,2.7-4.6,5.9-4.6c3.5,0,6.3,2.6,5.8,6.3l-15.5,114.5
			c-1,6.9-6.4,11.7-13.7,11.7c-6.2,0-11.2-3.8-13.3-8.4L898.3,154l-21.8,52.2c-1.9,4.6-7.1,8.3-13.1,8.3c-7.4,0-12.8-5-13.7-11.7
			L834.2,88.2z"/>
		<path class="st3" d="M984.5,128.4c-3.7,0-5.8-2.2-5.8-5.2c0-2.7,2-5.1,5.5-5.1h34c15.3,0,26.3,12.1,26.3,27.7v60.7
			c0,4.6-3.5,8-8.3,8h-35c-15.4,0-27.8-12.2-27.8-27.2c0-15,12.4-27.6,27.9-27.6h32v-13.2c0-10.3-6.1-18-15.5-18L984.5,128.4z
			 M1033.1,203.9v-33.6h-32c-8.9,0-16.7,7.8-16.7,17c0,9.2,7.7,16.6,16.7,16.6H1033.1z"/>
		<path class="st3" d="M1111.2,116.3c3.7,0,5.8,2.3,5.8,5.1c0,2.9-2.2,5.1-5.4,5.1h-6.2c-17.6,0-26,10.4-26,27.1v55.7
			c0,3.1-2.4,5.2-5.7,5.2c-3.5,0-5.6-2.2-5.6-5.2v-88.1c0-3.2,1.6-4.9,4.7-4.9c3,0,4.7,1.7,4.8,4.8l0.2,7.8
			c5.2-8.4,14.1-12.7,27.6-12.7L1111.2,116.3z"/>
		<path class="st3" d="M1190.6,118.2c3.5,0,5.8,2.3,5.8,5.1c0,3.1-2.4,5.2-5.4,5.2h-29c-12.1,0-21.5,4.3-21.5,15.8
			c0,10.5,6.9,13.6,22.9,15.6l6.8,1c18.4,2.5,29.8,10,29.8,26c0,21.2-14.8,27.6-36.1,27.6h-26.5c-3,0-5.4-2.1-5.4-5.1
			c0-3,2.3-5.2,5.4-5.2h26.5c15,0,24.7-4.5,24.7-17.2c0-8.6-7.2-14.4-20.1-15.9l-8.1-0.9c-18.8-2.1-31.2-8.5-31.2-25.6
			c0-18.9,15.2-26.4,32.7-26.4H1190.6z"/>
	</g>
</g>
<g id="Icon">
	<polygon class="st7" points="181.3,33.7 134.8,7 88.3,33.7 88.3,51 134.8,24.2 181.3,51 	"/>
	<polygon class="st5" points="88.3,272.3 134.8,299 181.3,272.3 181.3,255 134.8,281.8 88.3,255 	"/>
	<polygon class="st6" points="260.2,133.6 260.1,80 213.7,53.1 198.7,61.8 245.2,88.6 245.2,142.2 	"/>
	<polygon class="st1" points="7,172.4 7.1,226 53.5,252.9 68.4,244.2 22,217.4 21.9,163.8 	"/>
	<polygon class="st6" points="53.5,53.1 7.1,80 7,133.6 21.9,142.2 22,88.6 68.4,61.8 	"/>
	<polygon class="st1" points="213.7,252.9 260.1,226 260.2,172.4 245.2,163.8 245.2,217.4 198.7,244.2 	"/>
	<g>
		<g>
			<path class="st0" d="M232.5,98.1c-4,2.2-8,4.4-12.1,6.6c-4.1,2.1-8.1,4.3-12.2,6.5c-4.1,2.1-8.1,4.3-12.2,6.3l-12.3,6.3
				l-12.3,6.2c-4.1,2.1-8.2,4.1-12.3,6.1c-4.1,2-8.2,4.1-12.4,6c-4.1,2-8.3,4-12.4,5.9l1.5-2.3l-0.1,7.7l-0.2,7.7l-0.5,15.3
				l-0.5,15.3c-0.2,5.1-0.2,10.2-0.3,15.3c-0.1,2.6,0,5.1-0.1,7.7l0,7.7c0,5.1,0,10.2,0.1,15.3l0.1,7.7l0.2,7.5l0.4,15.2h-3.3
				c-0.3-10-0.6-20.3-0.8-30.5l-0.2-15.3l-0.2-15.3l-0.3-30.6l0-15.3l0-7.7l0.1-7.7l1.8,2.8l-12.3-6.1c-4.1-2-8.2-4.1-12.3-6.2
				L94.9,130l-12.3-6.2l-12.2-6.3l-12.2-6.4c-4.1-2.1-8.1-4.3-12.2-6.5c-4.1-2.2-8.1-4.3-12.1-6.5l0.3-0.5c4.2,1.8,8.5,3.6,12.7,5.4
				c4.2,1.8,8.4,3.6,12.6,5.5L72,114l12.6,5.6l12.5,5.7l12.5,5.8c4.2,1.9,8.3,3.8,12.5,5.8l12.7,5.9c1.1,0.5,2,1.6,2,2.8v0.1
				l-0.2,7.7l-0.1,7.7l-0.1,15.3l-0.4,30.7l-0.2,15.3l-0.3,15.3c-0.2,10.2-0.5,20.4-0.8,30.7l0,0.1c0,0.9-0.8,1.6-1.7,1.6
				c-0.9,0-1.6-0.8-1.6-1.7l0.4-15.3l0.2-7.7l0.1-7.7c0.1-5.1,0.1-10.2,0.1-15.3l0-7.7c0-2.6,0-5.1-0.1-7.7
				c-0.1-5.1-0.2-10.2-0.3-15.3l-0.5-15.3l-0.5-15.3l-0.2-7.7l-0.1-7.7c0-1,0.5-1.9,1.4-2.3l0.1,0c4.1-2.1,8.2-4,12.4-6.1
				c4.1-2,8.3-3.9,12.4-5.9c4.2-2,8.3-3.9,12.5-5.9l12.5-5.8l12.5-5.7c4.2-1.9,8.4-3.7,12.6-5.6c4.2-1.9,8.4-3.7,12.6-5.5
				c4.2-1.8,8.5-3.6,12.7-5.3L232.5,98.1z"/>
		</g>
	</g>
	<g>
		<path class="st4" d="M1010.3,256.6c0,3-2.2,5.3-5.2,5.8v0.2c3,0.5,5.2,2.8,5.2,5.8v15.1c0,7.7-4.2,11.8-11.9,11.8h-19.7
			c-0.8,0-1.3-0.5-1.3-1.3v-63c0-0.9,0.5-1.3,1.3-1.3h19.7c7.7,0,11.9,4.1,11.9,11.8V256.6z M999.4,243.8c0-2.1-1.1-3.3-3.3-3.3
			h-7.5v16.6h7.5c2.1,0,3.3-1.1,3.3-3.2V243.8z M999.4,271.2c0-2.1-1.1-3.3-3.3-3.3h-7.5v16.6h7.5c2.1,0,3.3-1.1,3.3-3.3V271.2z"/>
		<path class="st4" d="M1051.2,239.2c0,0.8-0.3,1.4-1.3,1.4h-20.5V257h15.7c0.8,0,1.3,0.5,1.3,1.4v8.1c0,0.9-0.5,1.4-1.3,1.4h-15.7
			v16.6h20.5c1,0,1.3,0.4,1.3,1.3v8.2c0,0.8-0.3,1.3-1.3,1.3h-30.2c-0.7,0-1.2-0.5-1.2-1.3v-63c0-0.8,0.5-1.3,1.2-1.3h30.2
			c1,0,1.3,0.5,1.3,1.3V239.2z"/>
		<path class="st4" d="M1089.3,229.7c0.9,0,1.3,0.5,1.3,1.3v8.2c0,0.8-0.4,1.3-1.3,1.3h-9.5V294c0,0.9-0.4,1.3-1.3,1.3h-8.5
			c-0.8,0-1.3-0.4-1.3-1.3v-53.5h-9.5c-0.8,0-1.3-0.5-1.3-1.3V231c0-0.8,0.5-1.3,1.3-1.3H1089.3z"/>
		<path class="st4" d="M1120.7,295.3c-0.7,0-1.1-0.4-1.3-1.1l-2.3-12h-14.6l-2.2,12c-0.2,0.7-0.6,1.1-1.3,1.1h-8.8
			c-0.9,0-1.3-0.5-1.1-1.4l13.6-63.1c0.2-0.8,0.7-1.1,1.4-1.1h11.4c0.7,0,1.2,0.3,1.4,1.1l13.6,63.1c0.2,0.9-0.2,1.4-1.1,1.4H1120.7
			z M1109.8,244.1l-5.3,28.6h10.5L1109.8,244.1z"/>
	</g>
</g>
</svg>
