<?xml version="1.0" encoding="utf-8"?>
<!-- Generator: Adobe Illustrator 16.0.3, SVG Export Plug-In . SVG Version: 6.00 Build 0)  -->
<!DOCTYPE svg PUBLIC "-//W3C//DTD SVG 1.1//EN" "http://www.w3.org/Graphics/SVG/1.1/DTD/svg11.dtd">
<svg version="1.1" id="Layer_1" xmlns="http://www.w3.org/2000/svg" xmlns:xlink="http://www.w3.org/1999/xlink" x="0px" y="0px"
	 width="100px" height="100px" viewBox="0 0 100 100" style="enable-background:new 0 0 100 100;" xml:space="preserve">
<g>
	<g>
		<path d="M38.654,15.001c3.915,0.735,7.762,1.785,11.589,2.88c2.191,0.642,4.375,1.304,6.545,2.011
			c3.408,1.093,6.802,2.333,9.89,4.181c1.383,0.845,2.71,1.802,3.845,2.969c1.23,1.211,2.238,2.648,2.979,4.211
			c1.345,2.833,1.805,6,1.944,9.113c0.063,2.029,0.059,4.078-0.319,6.083c-0.31,1.742-0.868,3.46-1.792,4.974
			c-0.814,1.337-1.951,2.492-3.33,3.236c-1.321,0.719-2.833,1.061-4.331,1.029c-2.274,0.025-4.479-0.704-6.518-1.663
			c-0.041-6.837-0.007-13.675-0.018-20.512c-0.017-1.237,0.066-2.486-0.179-3.707c-0.174-0.946-0.558-1.898-1.292-2.54
			c-0.489-0.444-1.121-0.694-1.759-0.829c-0.644-0.124-1.33,0.152-1.728,0.672c-0.661,0.834-0.834,1.941-0.864,2.979
			c-0.007,18.303,0.007,36.606-0.007,54.912c-4.885-1.563-9.771-3.125-14.655-4.688C38.649,58.542,38.651,36.771,38.654,15.001z"/>
		<path d="M16.697,61.319c6.368-2.271,12.731-4.566,19.103-6.834c0.01,2.522,0,5.041,0.004,7.566
			c-0.004,0.34,0.018,0.686-0.024,1.023c-5.037,1.799-10.063,3.629-15.095,5.441c-0.697,0.267-1.414,0.567-1.95,1.103
			c-0.25,0.254-0.455,0.623-0.318,0.984c0.172,0.426,0.603,0.657,1,0.83c1.104,0.454,2.31,0.518,3.485,0.574
			c1.312-0.021,2.627-0.121,3.912-0.406c0.868-0.173,1.704-0.469,2.53-0.78c2.15-0.783,4.299-1.573,6.453-2.351
			c0.016,2.132,0.002,4.266,0.007,6.401c-0.007,0.423,0.02,0.854-0.022,1.279c-2.644,0.478-5.32,0.804-8.008,0.845
			c-5.413,0.125-10.838-0.722-15.98-2.425c-1.684-0.493-3.359-1.147-4.768-2.226c-0.775-0.605-1.469-1.366-1.822-2.301
			c-0.296-0.792-0.273-1.708,0.094-2.471c0.355-0.766,0.975-1.366,1.658-1.836c1.581-1.098,3.323-1.938,5.089-2.685
			C13.564,62.399,15.143,61.892,16.697,61.319z"/>
		<path d="M67.943,58.448c1.442-0.168,2.896-0.208,4.349-0.26c4.779,0.016,9.578,0.616,14.149,2.061
			c0.898,0.275,1.765,0.632,2.658,0.919c1.592,0.586,3.188,1.296,4.462,2.449c0.767,0.703,1.426,1.654,1.435,2.735
			c0.047,0.882-0.351,1.729-0.917,2.378c-1.079,1.222-2.508,2.061-3.939,2.79c-1.525,0.784-3.166,1.289-4.765,1.888
			c-9.76,3.534-19.524,7.064-29.287,10.603c-0.001-2.759,0.004-5.513-0.001-8.268c0.017-0.108-0.045-0.3,0.108-0.33
			c7.429-2.661,14.854-5.335,22.281-8.006c1.005-0.377,2.087-0.65,2.94-1.337c0.348-0.277,0.689-0.717,0.52-1.191
			c-0.18-0.413-0.606-0.642-0.999-0.813c-1.11-0.444-2.323-0.529-3.504-0.563c-1.852,0.012-3.722,0.244-5.481,0.84
			c-5.292,1.871-10.57,3.762-15.864,5.622c0-2.958-0.001-5.917,0.002-8.875C59.918,59.734,63.917,58.914,67.943,58.448z"/>
	</g>
</g>
</svg>
