<?xml version="1.0" encoding="utf-8"?>
<!-- Generator: Adobe Illustrator 16.0.3, SVG Export Plug-In . SVG Version: 6.00 Build 0)  -->
<!DOCTYPE svg PUBLIC "-//W3C//DTD SVG 1.1//EN" "http://www.w3.org/Graphics/SVG/1.1/DTD/svg11.dtd">
<svg version="1.1" id="Layer_1" xmlns="http://www.w3.org/2000/svg" xmlns:xlink="http://www.w3.org/1999/xlink" x="0px" y="0px"
	 width="100px" height="100px" viewBox="0 0 100 100" style="enable-background:new 0 0 100 100;" xml:space="preserve">
<style type="text/css">
<![CDATA[
	.st0{fill:#107C10;}
	.st1{fill:#FFFFFF;}
]]>
</style>
<g>
	<path class="st0" d="M97.5,49.997C97.5,76.236,76.233,97.5,50,97.5c-26.232,0-47.5-21.264-47.5-47.503
		C2.5,23.766,23.768,2.5,50,2.5C76.233,2.5,97.5,23.766,97.5,49.997z"/>
	<path class="st1" d="M63.093,29.689c0.202-0.334,0.359-0.656,0.57-0.99c4.229-5.696,11.943-12.571,19.629-14.057
		c-2.385-2.22-4.984-4.221-7.778-5.935h-0.09c-10.25-0.3-19.647,4.384-25.389,7.988c-5.757-3.604-15.191-8.293-25.484-7.988h-0.09
		c-2.805,1.708-5.411,3.715-7.804,5.929c7.713,1.48,15.452,8.355,19.694,14.046c0.212,0.333,0.371,0.656,0.574,0.989
		c-6.368,7.782-27.049,33.137-25.131,50.533c1.389,1.776,2.917,3.444,4.536,5.014C16.094,71.39,32.124,56.584,44.66,45.402v0.006
		c1.719-1.473,3.471-2.97,5.354-4.505c1.888,1.541,3.645,3.054,5.367,4.534v-0.005c12.493,11.191,28.471,26.011,28.236,39.853
		c1.615-1.574,3.138-3.242,4.524-5.021C90.051,62.852,69.438,37.477,63.093,29.689z"/>
</g>
</svg>
